<svg xmlns="http://www.w3.org/2000/svg" viewBox="0 0 12.59 146.3"><defs><style>.cls-1{fill:none;stroke:#222221;stroke-miterlimit:10;stroke-width:2px;}.cls-2{fill:#222221;}</style></defs><g id="Layer_2" data-name="Layer 2"><g id="Background_Simple" data-name="Background Simple"><path d="M8.46,118.22a9.94,9.94,0,0,0-3-1.06A18,18,0,0,0,2,116.87H0V112.2H8.46v-1l3.23.08v1.09H9.54v5.41h2.15v1.09l-3.23.08Zm0-4.81H1.08v2.25H2.26a15.85,15.85,0,0,1,4.33.49,8.68,8.68,0,0,1,1.87.72Z"/><path d="M2.62,107.54a1.91,1.91,0,0,1,.39-1.4,1.67,1.67,0,0,1,1.31-.52,1.87,1.87,0,0,1,1,.27,1.26,1.26,0,0,1,.52.9h.08a1.56,1.56,0,0,1,.6-1.06,1.86,1.86,0,0,1,1.14-.32,1.92,1.92,0,0,1,1.34.48,2.17,2.17,0,0,1,.52,1.69V110H2.62Zm2.88,1.35v-1a1.08,1.08,0,0,0-.28-.83,1,1,0,0,0-.78-.29.91.91,0,0,0-.82.36,1.28,1.28,0,0,0-.16.72v1Zm3.19,0v-1.06a1.39,1.39,0,0,0-.15-.73,1.09,1.09,0,0,0-1-.49,1.11,1.11,0,0,0-1,.43,1.35,1.35,0,0,0-.19.83v1Z"/><path d="M2.62,100.35V99.11H9.54v1.14H4.85l-.73,0v0l.65.22,4.77,2.33V104H2.62v-1.14H7.29l.75,0v0l-.67-.22Z"/><path d="M9.54,96.28v1.14H2.62V93.59h.84v2.69Z"/><path d="M4.66,93.17a2.75,2.75,0,0,1-1.36-.34,2.13,2.13,0,0,1-1-2,2.37,2.37,0,0,1,.48-1.58,2.27,2.27,0,0,1,1.85-.66H8.11a1,1,0,0,0,.47-.06c.13-.08.14-.25.1-.44h.86c0,.12.05.37.05.57a1,1,0,0,1-.17.62.65.65,0,0,1-.47.28,2.24,2.24,0,0,1,.86,1.92A1.66,1.66,0,0,1,9,93a2.26,2.26,0,0,1-1.29.32,1.88,1.88,0,0,1-1.67-.78,3.36,3.36,0,0,1-.45-1.32c-.05-.34-.09-.78-.16-1.08a.49.49,0,0,0-.22-.35c-.09-.06-.23-.07-.58-.07a1.75,1.75,0,0,0-1.19.31,1,1,0,0,0-.27.78,1.13,1.13,0,0,0,.27.82,1.56,1.56,0,0,0,1.2.39Zm1.51-3.42a4,4,0,0,1,.11.61,5.45,5.45,0,0,0,.18,1,1.2,1.2,0,0,0,1.33.79,1.38,1.38,0,0,0,.85-.2A.82.82,0,0,0,9,91.29a1.51,1.51,0,0,0-.6-1.2,3.1,3.1,0,0,0-1.78-.34Z"/><path d="M7.54,82A2.78,2.78,0,0,1,9,82.54a2.31,2.31,0,0,1,.82,1.95,2.21,2.21,0,0,1-1,2,4.75,4.75,0,0,1-2.73.7,5.23,5.23,0,0,1-2.82-.71,2.39,2.39,0,0,1-.94-2,2.12,2.12,0,0,1,1.15-2,5.6,5.6,0,0,1,2.86-.52v4a3.81,3.81,0,0,0,2-.49,1.23,1.23,0,0,0,0-2.14,1.89,1.89,0,0,0-.81-.26Zm-2,1.15a4.38,4.38,0,0,0-1.66.31,1,1,0,0,0-.65,1,1.22,1.22,0,0,0,.57,1.09A3.4,3.4,0,0,0,5.5,86Z"/><path d="M4.65,79.4v0l.57,0H9.54v1.14H2.62V79.07l5.27-1.69L2.62,75.69V74.22H9.54v1.14H5.22l-.57,0v0l4.89,1.56v.92Z"/><path d="M7.07,64.56A3.57,3.57,0,0,1,8.78,65a2.06,2.06,0,0,1,1,1.94,2.17,2.17,0,0,1-1,2A5.36,5.36,0,0,1,6,69.66a4.92,4.92,0,0,1-2.78-.72A2.28,2.28,0,0,1,2.34,67a2.18,2.18,0,0,1,.82-1.87,2.6,2.6,0,0,1,1.62-.56v1.11a2,2,0,0,0-1.05.3,1.14,1.14,0,0,0-.54,1A1.2,1.2,0,0,0,4,68.13a5.33,5.33,0,0,0,2,.33,6,6,0,0,0,2-.31c.73-.3,1-.75,1-1.2a1.14,1.14,0,0,0-.74-1,3,3,0,0,0-1.16-.23Z"/><path d="M2.62,59H9.54v1.13H3.46v1.66H5.22c2.34,0,4.37.17,4.37,1.79a1.93,1.93,0,0,1-.07.57H8.65c.32-1.28-1.54-1.27-3.43-1.27H2.62Z"/><path d="M4.66,57.38A2.64,2.64,0,0,1,3.3,57a2.11,2.11,0,0,1-1-2,2.41,2.41,0,0,1,.48-1.58,2.3,2.3,0,0,1,1.85-.65H8.11a.9.9,0,0,0,.47-.07c.13-.08.14-.24.1-.43h.86c0,.12.05.36.05.57a1,1,0,0,1-.17.61.67.67,0,0,1-.47.29,2.23,2.23,0,0,1,.86,1.92A1.66,1.66,0,0,1,9,57.25a2.25,2.25,0,0,1-1.29.31,1.89,1.89,0,0,1-1.67-.77,3.42,3.42,0,0,1-.45-1.33c-.05-.34-.09-.77-.16-1.07A.49.49,0,0,0,5.23,54,1.28,1.28,0,0,0,4.65,54a1.7,1.7,0,0,0-1.19.32,1,1,0,0,0-.27.77,1.13,1.13,0,0,0,.27.82,1.61,1.61,0,0,0,1.2.4ZM6.17,54a4.07,4.07,0,0,1,.11.62,5.61,5.61,0,0,0,.18,1,1.22,1.22,0,0,0,1.33.79,1.39,1.39,0,0,0,.85-.21A.81.81,0,0,0,9,55.5a1.49,1.49,0,0,0-.6-1.19A3,3,0,0,0,6.59,54Z"/><path d="M0,49.57a1.46,1.46,0,0,0,.69-.15.81.81,0,0,0,.39-.75.8.8,0,0,0-.39-.75A1.35,1.35,0,0,0,0,47.77v-1a1.75,1.75,0,0,1,1.51.73,2,2,0,0,1,.29,1.15,1.91,1.91,0,0,1-.29,1.14A1.76,1.76,0,0,1,0,50.55Zm2.62-2.14V46.19H9.54v1.14H4.85l-.73,0v0l.65.22,4.77,2.33v1.24H2.62V50H7.29L8,50v0l-.67-.22Z"/><path d="M8.69,44.64a8.28,8.28,0,0,0-1.39-.51,13.12,13.12,0,0,0-3.53-.34H2.62v-4H8.69v-.9l2.65.05v1H9.54v4.24h1.8v1l-2.65.08Zm0-3.7H3.46v1.77h1a11.69,11.69,0,0,1,3.19.36,7.21,7.21,0,0,1,1.07.39Z"/><path d="M7.54,33A2.7,2.7,0,0,1,9,33.59a2.3,2.3,0,0,1,.82,1.95,2.22,2.22,0,0,1-1,2,4.73,4.73,0,0,1-2.73.69,5.23,5.23,0,0,1-2.82-.71,2.38,2.38,0,0,1-.94-2,2.13,2.13,0,0,1,1.15-2A5.72,5.72,0,0,1,6.35,33V37a3.63,3.63,0,0,0,2-.49A1.2,1.2,0,0,0,9,35.47a1.23,1.23,0,0,0-.62-1.08,1.89,1.89,0,0,0-.81-.26Zm-2,1.14a4.2,4.2,0,0,0-1.66.32,1,1,0,0,0-.65,1,1.23,1.23,0,0,0,.57,1.09A3.4,3.4,0,0,0,5.5,37Z"/><path d="M2.62,30.5h.7v0a1.72,1.72,0,0,1-.49-.34,1.81,1.81,0,0,1-.49-1.28,2.08,2.08,0,0,1,.93-1.8,4.94,4.94,0,0,1,2.81-.7,5.36,5.36,0,0,1,2.61.59,2,2,0,0,1,1.12,1.89,1.91,1.91,0,0,1-.46,1.28,1.49,1.49,0,0,1-.4.33h3.11v1.15H2.62Zm5.28-.26C8.91,29.83,9,29.15,9,29s-.1-.86-1-1.19a5.36,5.36,0,0,0-1.9-.26A4.6,4.6,0,0,0,4,27.91a1.21,1.21,0,0,0-.82,1.14A1.25,1.25,0,0,0,4,30.16a4.71,4.71,0,0,0,2.07.34A4.52,4.52,0,0,0,7.9,30.24Z"/><line class="cls-1" x1="6.87" y1="124.85" x2="6.87" y2="144.78"/><polygon class="cls-2" points="1.14 140.14 2.17 139.19 6.87 144.24 11.57 139.19 12.59 140.14 6.87 146.3 1.14 140.14"/><line class="cls-1" x1="6.87" y1="1.52" x2="6.87" y2="21.45"/><polygon class="cls-2" points="1.14 6.16 2.17 7.11 6.87 2.06 11.57 7.11 12.59 6.16 6.87 0 1.14 6.16"/></g></g></svg>